<?xml version="1.0" standalone="no"?>
<!DOCTYPE svg PUBLIC "-//W3C//DTD SVG 20010904//EN"
 "http://www.w3.org/TR/2001/REC-SVG-20010904/DTD/svg10.dtd">
<svg version="1.0" xmlns="http://www.w3.org/2000/svg"
 width="512.000000pt" height="512.000000pt" viewBox="0 0 512.000000 512.000000"
 preserveAspectRatio="xMidYMid meet">
<metadata>
Created by potrace 1.14, written by Peter Selinger 2001-2017
</metadata>
<g transform="translate(0.000000,512.000000) scale(0.100000,-0.100000)"
fill="#000000" stroke="none">
<path d="M1560 5090 l45 -7 -40 -2 c-59 -2 -70 -12 -44 -40 l22 -23 -52 3
c-37 3 -51 0 -51 -9 0 -7 4 -11 8 -8 5 3 9 -2 9 -10 0 -8 -6 -13 -14 -10 -7 3
-13 1 -13 -4 0 -6 -7 -10 -16 -10 -8 0 -12 -4 -9 -10 3 -5 2 -10 -2 -10 -5 0
-9 -9 -9 -20 0 -25 33 -27 52 -2 13 15 15 16 27 1 16 -20 149 -34 178 -18 23
12 49 -3 49 -28 0 -12 -7 -14 -27 -9 -35 8 -25 9 -173 -4 -89 -7 -128 -15
-136 -25 -6 -8 -25 -15 -42 -15 -17 0 -33 -4 -36 -9 -3 -4 -29 -12 -58 -16
l-53 -8 40 -7 c24 -5 45 -4 53 2 8 7 12 7 12 0 0 -5 17 -13 38 -16 86 -15 96
-18 81 -26 -8 -4 -43 -11 -79 -15 -36 -4 -68 -12 -73 -19 -5 -8 -11 -6 -20 5
-6 9 -19 16 -27 16 -8 0 -33 3 -55 6 -140 19 -185 20 -185 5 0 -18 25 -24 145
-34 99 -8 184 -33 177 -52 -2 -7 5 -12 17 -12 12 0 21 -4 21 -10 0 -5 -15 -10
-33 -10 -18 0 -42 -7 -54 -15 -16 -11 -28 -13 -48 -5 -44 17 -68 13 -62 -10 5
-19 2 -20 -51 -14 -62 7 -60 7 -82 5 -22 -2 38 -31 64 -31 36 0 66 -12 66 -25
0 -18 20 -23 110 -30 41 -3 77 -9 80 -14 3 -4 14 -12 24 -18 15 -8 3 -11 -54
-11 -83 -1 -100 -8 -44 -17 22 -4 44 -13 49 -19 6 -7 29 -15 53 -19 46 -6 66
-17 45 -24 -7 -3 -13 -10 -13 -16 0 -7 -14 -13 -32 -14 -38 -3 -77 -36 -57
-48 8 -6 10 -4 4 5 -14 22 43 2 73 -25 28 -27 42 -30 58 -16 21 19 71 19 113
0 24 -10 53 -19 65 -19 16 0 18 -2 6 -9 -8 -6 -17 -8 -22 -5 -4 3 -5 -17 -1
-44 3 -27 1 -58 -5 -69 -10 -18 -8 -19 19 -15 16 2 29 8 29 13 0 5 8 9 18 9
12 0 22 14 32 43 11 30 24 46 47 57 36 17 42 36 15 44 -27 9 -59 47 -67 79 -6
23 -1 33 33 68 37 36 43 39 63 28 13 -7 41 -9 69 -6 27 3 52 1 58 -5 7 -7 17
-6 32 2 23 12 71 4 144 -23 24 -9 31 -8 42 8 22 30 36 5 42 -74 5 -70 5 -70
-32 -107 -34 -34 -39 -36 -80 -30 l-43 7 -1 -44 c-1 -43 -1 -43 31 -39 18 2
67 -6 109 -17 43 -12 99 -21 125 -21 55 0 158 -18 191 -33 12 -6 20 -17 18
-24 -3 -7 -1 -13 4 -13 6 0 10 7 10 16 0 15 38 15 238 -2 59 -5 75 -15 51 -29
-6 -4 -8 -13 -5 -21 3 -8 0 -16 -7 -18 -40 -12 -132 -26 -193 -31 -39 -3 -91
-11 -115 -18 -52 -16 -76 -12 -58 9 6 8 22 14 34 14 30 0 64 48 44 61 -8 5
-23 7 -34 4 -11 -2 -33 -5 -48 -5 -18 0 -26 -4 -21 -11 4 -8 -3 -9 -23 -5 -16
4 -43 1 -59 -6 -31 -13 -165 -26 -300 -31 -66 -2 -86 1 -101 16 -11 9 -31 17
-45 17 -14 0 -37 6 -50 13 -16 8 -67 12 -151 11 -70 0 -127 3 -127 7 0 4 -16
9 -35 11 -19 2 -35 0 -35 -6 0 -6 -5 -5 -11 1 -6 6 -18 9 -25 6 -8 -3 -22 1
-31 8 -14 12 -15 11 -9 -11 4 -14 10 -33 12 -42 3 -10 12 -18 20 -18 8 0 14
-5 14 -11 0 -6 7 -9 15 -5 18 7 20 -5 3 -22 -9 -9 -9 -12 1 -12 22 0 8 -45
-15 -48 -27 -4 -41 28 -20 44 9 6 13 14 9 17 -3 4 -12 2 -18 -3 -7 -6 -40 -11
-73 -12 -41 -1 -63 -6 -66 -15 -6 -14 -35 -13 -69 2 -9 4 -29 5 -42 2 -15 -2
-25 0 -24 7 4 34 -4 36 -15 3 -18 -51 -42 -75 -83 -86 -52 -15 -97 -3 -134 35
-29 30 -31 37 -27 85 6 56 22 76 87 104 41 18 68 19 74 3 4 -10 8 -10 15 1 8
11 10 11 15 0 3 -8 3 9 0 36 -3 28 -11 58 -18 68 -7 10 -11 37 -8 65 4 44 3
46 -11 28 -9 -11 -16 -14 -16 -8 0 16 -39 15 -45 0 -3 -7 -16 -14 -29 -14 -17
-1 -23 2 -19 12 4 11 -6 14 -41 14 -34 0 -44 -3 -40 -14 5 -14 -39 -28 -96
-31 -14 -1 -46 -5 -71 -9 -37 -6 -47 -5 -52 7 -7 18 8 32 46 41 15 3 27 13 27
21 0 17 -23 32 -27 18 -2 -6 -12 -9 -22 -6 -12 3 -25 -4 -35 -19 -16 -22 -22
-23 -132 -23 -99 0 -117 -3 -128 -17 -14 -20 -51 -24 -61 -8 -3 6 -25 10 -48
10 -89 0 -177 13 -177 26 0 7 -8 10 -20 7 -20 -5 -20 -14 -20 -2134 l0 -2129
2560 0 2560 0 0 2403 0 2404 -22 11 c-70 33 -182 17 -238 -34 -20 -18 -29 -21
-44 -12 -15 8 -22 7 -31 -6 -11 -14 -14 -15 -25 -1 -14 17 -40 20 -40 5 0 -6
-12 -10 -27 -9 -16 1 -32 0 -38 -1 -5 -2 -48 0 -95 3 -47 4 -140 9 -208 11
-107 3 -124 1 -129 -13 -14 -37 -25 -43 -47 -22 -28 26 -96 39 -96 18 0 -11
-10 -13 -45 -9 -39 4 -45 2 -39 -12 5 -12 0 -16 -22 -17 l-29 -1 35 -15 c19
-8 38 -20 42 -26 5 -9 10 -9 20 1 21 21 41 15 34 -12 -7 -27 17 -42 49 -30 10
4 21 1 26 -7 29 -46 -16 -55 -145 -30 -72 14 -105 17 -119 9 -10 -5 -27 -8
-37 -5 -11 3 -21 -1 -24 -9 -7 -18 -33 -18 -43 0 -10 16 -46 36 -67 36 -8 0
-21 -7 -30 -15 -24 -24 -99 -30 -137 -11 -38 19 -42 20 -33 5 5 -8 -28 -10
-122 -5 -71 4 -166 6 -211 6 -90 -2 -347 43 -373 65 -8 7 -31 15 -50 19 -19 3
-53 15 -75 25 -22 11 -62 27 -89 36 -27 8 -67 31 -88 50 -22 19 -49 35 -61 37
-31 5 -55 47 -62 108 -9 70 -11 73 -51 67 -19 -3 -36 -1 -39 4 -4 5 -43 9 -88
9 -49 0 -100 7 -127 16 -33 12 -77 16 -168 15 -86 -2 -122 1 -117 9 4 7 -11 9
-47 6 -34 -2 -40 -1 -18 3 64 11 15 20 -101 19 -81 -1 -101 -4 -69 -8z m23
-27 c-13 -2 -33 -2 -45 0 -13 2 -3 4 22 4 25 0 35 -2 23 -4z m3177 -332 c0 -6
-4 -13 -10 -16 -5 -3 -10 1 -10 9 0 9 5 16 10 16 6 0 10 -4 10 -9z m50 -26 c0
-8 -7 -15 -16 -15 -14 0 -14 3 -4 15 7 8 14 15 16 15 2 0 4 -7 4 -15z m-463
-131 c-3 -3 -12 -4 -19 -1 -8 3 -5 6 6 6 11 1 17 -2 13 -5z m-667 -114 c0 -5
-7 -7 -15 -4 -8 4 -15 8 -15 10 0 2 7 4 15 4 8 0 15 -4 15 -10z m-2300 -29 c0
-17 -18 -21 -24 -6 -3 9 0 15 9 15 8 0 15 -4 15 -9z m2050 -61 c0 -5 -4 -10
-9 -10 -6 0 -13 5 -16 10 -3 6 1 10 9 10 9 0 16 -4 16 -10z m57 4 c-3 -3 -12
-4 -19 -1 -8 3 -5 6 6 6 11 1 17 -2 13 -5z m60 0 c-3 -3 -12 -4 -19 -1 -8 3
-5 6 6 6 11 1 17 -2 13 -5z m-155 -45 c15 -8 26 -8 44 1 17 9 47 11 111 5 48
-4 105 -7 127 -6 21 0 70 -6 110 -14 39 -8 98 -17 131 -20 33 -4 71 -9 85 -12
14 -3 42 -6 62 -7 36 -2 67 -16 36 -16 -21 0 -31 -29 -17 -46 6 -7 20 -14 32
-16 12 -2 23 -12 26 -23 2 -11 9 -24 17 -28 19 -11 18 -28 -1 -21 -8 4 -21 1
-29 -5 -7 -6 -16 -8 -19 -4 -4 3 -7 0 -7 -7 0 -7 -3 -11 -6 -7 -3 3 -26 -1
-51 -8 -47 -14 -60 -14 -105 4 -19 7 -36 7 -54 1 -15 -6 -48 -7 -75 -4 -40 5
-47 9 -38 20 20 24 -22 17 -49 -8 -21 -21 -33 -23 -120 -22 -53 0 -113 3 -132
6 -19 4 -40 7 -47 7 -7 1 -24 12 -39 26 -18 16 -39 25 -61 25 -18 0 -41 4 -51
9 -9 5 -25 12 -35 15 -25 8 -32 34 -13 55 9 10 16 26 16 37 0 21 50 54 80 54
10 0 22 5 25 10 8 13 21 13 47 -1z m-2413 -134 c0 -5 -4 -3 -9 5 -5 8 -9 22
-9 30 0 16 17 -16 18 -35z m3234 32 c24 -13 24 -14 7 -25 -19 -12 -44 -8 -68
11 -11 8 -11 12 0 18 18 12 32 11 61 -4z m-3540 -56 c4 -4 0 -21 -8 -38 -13
-25 -23 -31 -61 -37 -59 -8 -121 2 -128 21 -5 11 -22 13 -93 8 -61 -5 -84 -3
-73 4 23 16 10 20 -93 27 -54 4 -95 10 -91 13 3 3 87 9 187 12 100 4 193 11
207 16 25 10 136 -9 153 -26z m161 -69 c2 -4 -4 -9 -15 -9 -10 -1 -19 2 -19 8
0 11 27 12 34 1z m126 -17 c0 -7 -30 -13 -34 -7 -3 4 4 9 15 9 10 1 19 0 19
-2z m67 -1 c-3 -3 -12 -4 -19 -1 -8 3 -5 6 6 6 11 1 17 -2 13 -5z m-547 -55
c0 -5 9 -9 19 -9 21 0 33 -21 23 -37 -10 -16 -82 18 -82 38 0 8 3 18 6 22 8 8
34 -3 34 -14z m304 -39 c-6 -6 -21 -6 -39 -1 -30 9 -30 9 10 10 25 1 36 -2 29
-9z m877 -43 c6 -21 3 -29 -12 -38 -25 -13 -49 4 -49 36 0 28 9 37 34 33 12
-2 23 -14 27 -31z m-931 3 c0 -5 -7 -10 -15 -10 -8 0 -15 5 -15 10 0 6 7 10
15 10 8 0 15 -4 15 -10z m110 -21 c0 -5 -4 -9 -10 -9 -5 0 -10 7 -10 16 0 8 5
12 10 9 6 -3 10 -10 10 -16z m-30 -9 c0 -5 -2 -10 -4 -10 -3 0 -8 5 -11 10 -3
6 -1 10 4 10 6 0 11 -4 11 -10z m-20 -30 c34 -18 44 -48 25 -76 -16 -25 -49
-32 -60 -13 -4 6 -14 8 -22 5 -8 -4 -22 3 -33 16 -41 51 27 102 90 68z m408
-47 c2 -23 -3 -37 -17 -50 -22 -19 -28 -48 -11 -58 6 -3 10 -19 10 -35 0 -43
-39 -60 -81 -35 -17 11 -33 55 -19 55 4 0 7 17 6 37 -1 30 4 40 22 48 12 5 22
17 22 27 0 23 29 50 49 46 10 -2 17 -15 19 -35z m-323 -3 c3 -6 -1 -7 -9 -4
-18 7 -21 14 -7 14 6 0 13 -4 16 -10z m495 -44 c0 -20 -25 -37 -44 -30 -19 7
-21 35 -4 52 14 14 48 -2 48 -22z m-400 -26 c0 -45 -69 -68 -90 -30 -12 22 0
55 22 63 23 8 68 -14 68 -33z m-160 -14 c0 -14 5 -28 10 -31 16 -10 12 -42 -6
-49 -34 -13 -54 -7 -54 18 0 14 5 28 10 31 8 5 7 11 0 20 -15 18 -4 35 21 35
14 0 19 -7 19 -24z m-82 -78 c44 -42 13 -121 -54 -134 -45 -9 -86 29 -86 79 0
80 79 111 140 55z m330 -13 c-3 -16 1 -30 13 -41 39 -35 15 -77 -40 -70 -42 5
-55 18 -46 47 5 13 7 25 6 27 -1 1 6 16 14 32 20 39 60 43 53 5z m-104 -17 c8
-14 6 -22 -11 -38 -12 -11 -27 -20 -32 -20 -6 0 -21 -11 -35 -25 -30 -30 -37
-31 -67 -6 -20 16 -22 23 -14 47 7 19 21 32 40 37 17 5 37 13 45 18 23 13 62
6 74 -13z m1115 -6 c70 -9 82 -32 16 -32 -33 0 -45 -4 -42 -12 2 -8 16 -12 33
-10 16 2 97 4 179 5 128 2 163 -1 240 -21 108 -28 279 -86 355 -119 296 -131
548 -193 795 -193 151 0 252 12 485 55 242 45 368 59 404 45 30 -11 27 -30 -5
-30 -10 0 -19 -4 -19 -10 0 -5 -18 -13 -40 -16 -22 -4 -43 -11 -46 -15 -3 -5
-13 -9 -22 -9 -10 0 -34 -8 -54 -19 -136 -69 -444 -149 -580 -151 -4 0 -23 16
-44 35 -39 37 -56 40 -180 35 -29 -1 -85 3 -125 9 -41 6 -92 13 -114 16 -57 7
-134 23 -175 37 -19 6 -48 11 -63 10 -16 -2 -43 6 -60 17 -18 10 -48 22 -67
25 -19 4 -55 15 -80 25 -55 23 -145 40 -162 31 -7 -4 -28 -10 -46 -14 -28 -5
-35 -3 -39 14 -5 17 -14 20 -64 20 -74 0 -112 -14 -105 -38 5 -14 -4 -23 -44
-40 -27 -12 -50 -26 -50 -31 0 -25 17 -45 70 -81 56 -38 94 -44 111 -18 3 5 9
-12 12 -39 3 -26 14 -66 24 -88 56 -121 97 -145 343 -195 346 -72 466 -195
745 -765 73 -150 89 -175 134 -213 28 -24 84 -59 124 -77 74 -34 243 -84 352
-105 97 -18 105 -20 105 -30 0 -18 -57 -39 -161 -60 -108 -22 -314 -38 -345
-26 -16 6 -15 8 5 29 41 44 26 63 -81 96 -31 10 -41 9 -63 -5 -25 -16 -85 -13
-110 5 -5 4 -41 18 -80 30 -38 12 -79 26 -90 31 -11 5 -35 12 -54 15 -42 9
-161 64 -161 75 0 14 -60 38 -108 43 -24 3 -54 14 -65 25 -12 11 -27 18 -34
15 -6 -2 -14 1 -18 6 -8 14 -48 14 -62 0 -20 -20 -78 -14 -111 12 -17 13 -31
30 -31 37 -1 6 -5 12 -11 12 -5 0 -7 7 -4 15 5 13 2 14 -22 5 -57 -22 -130 16
-148 77 -4 11 -14 24 -22 27 -8 3 -12 2 -9 -4 3 -6 1 -10 -4 -10 -6 0 -11 5
-11 11 0 5 -4 7 -10 4 -19 -12 -95 32 -120 68 -32 48 -54 47 -82 -3 -13 -22
-33 -43 -46 -46 -35 -10 -89 5 -121 32 -20 17 -37 23 -53 19 -14 -3 -32 2 -47
14 -24 18 -24 20 -8 44 9 14 14 33 11 41 -8 20 36 22 54 4 8 -8 12 -9 12 -1 0
6 7 19 17 28 13 13 14 18 3 25 -8 5 -10 15 -5 26 22 55 23 111 0 74 -3 -6 -15
-5 -30 2 -19 8 -32 8 -51 -1 -25 -11 -26 -15 -20 -56 6 -48 -8 -61 -34 -31
-17 22 -40 8 -40 -24 0 -47 -20 -53 -76 -24 l-49 26 -95 -42 c-113 -50 -203
-62 -359 -50 -90 7 -112 13 -188 49 -92 44 -136 78 -195 150 -44 53 -51 81 -9
34 41 -45 177 -136 236 -158 76 -29 167 -35 267 -18 87 15 115 37 35 28 -105
-12 -173 -2 -299 47 -67 25 -89 41 -161 111 -76 74 -87 90 -114 162 -80 212
-59 414 57 567 22 29 40 55 40 58 0 3 25 25 55 49 30 24 53 46 50 49 -9 10
-88 -53 -138 -110 -27 -32 -54 -58 -58 -58 -5 0 -9 13 -9 29 0 41 -17 48 -46
20 -16 -15 -24 -32 -22 -49 3 -25 8 -27 42 -14 16 6 18 4 13 -12 -3 -10 -21
-67 -39 -126 -18 -60 -35 -105 -39 -100 -18 19 -28 165 -15 232 l8 45 -26 -28
c-22 -23 -27 -25 -32 -12 -4 9 -13 13 -23 10 -15 -4 -31 6 -101 67 -41 35 -6
34 71 -2 51 -23 77 -30 99 -25 17 4 30 11 30 16 0 5 29 32 65 60 36 28 65 55
65 61 0 5 -5 6 -11 2 -6 -3 -33 -12 -60 -19 l-49 -13 19 27 20 27 -45 12 c-24
7 -61 12 -82 12 -20 1 -47 6 -60 14 -22 12 -22 13 -6 27 25 21 175 18 242 -5
63 -21 111 -16 163 20 100 69 353 149 509 162 126 11 314 12 389 4z m-1424
-177 c14 -13 25 -30 25 -36 0 -23 -33 -49 -63 -49 -52 0 -74 53 -37 90 26 26
46 25 75 -5z m73 -101 c2 -12 -4 -24 -12 -27 -19 -7 -40 18 -32 39 8 22 40 13
44 -12z m179 -476 c-3 -7 -5 -2 -5 12 0 14 2 19 5 13 2 -7 2 -19 0 -25z m1228
-468 c-3 -5 -13 -10 -21 -10 -8 0 -12 5 -9 10 3 6 13 10 21 10 8 0 12 -4 9
-10z m-461 -646 c9 -3 16 -14 16 -23 0 -10 26 -45 58 -77 31 -33 77 -82 102
-108 47 -50 195 -156 218 -156 8 0 39 -17 70 -39 93 -63 165 -103 392 -216
118 -59 226 -115 240 -125 14 -10 67 -43 118 -74 184 -111 273 -212 316 -355
17 -59 22 -141 7 -141 -4 0 -29 35 -54 78 -49 85 -117 152 -275 272 -48 36
-89 75 -90 86 -2 10 -11 28 -21 38 -12 15 -302 162 -426 216 -11 5 -49 21 -85
36 -96 42 -250 133 -310 184 -29 25 -62 52 -74 60 -11 8 -33 29 -49 47 -16 18
-34 33 -41 33 -12 0 -46 50 -46 69 0 6 -15 28 -32 48 -50 55 -59 63 -68 63 -5
0 -12 10 -16 22 -4 13 -14 28 -22 34 -33 24 25 46 72 28z m712 -121 c27 -28
141 -89 157 -85 4 1 7 -3 7 -8 0 -5 12 -10 26 -10 14 0 37 -9 51 -20 14 -11
35 -20 47 -20 12 0 53 -8 91 -18 39 -11 81 -20 95 -21 50 -5 217 -4 310 2 115
8 104 -4 -32 -34 -131 -29 -329 -36 -433 -15 -124 25 -231 82 -304 164 -34 36
-61 70 -61 74 0 14 28 8 46 -9z"/>
<path d="M335 4140 c-4 -6 5 -10 20 -10 15 0 24 4 20 10 -3 6 -12 10 -20 10
-8 0 -17 -4 -20 -10z"/>
<path d="M1394 3459 c-57 -9 -138 -41 -149 -58 -3 -6 22 -1 57 13 106 39 189
49 289 32 48 -8 96 -19 107 -25 11 -6 27 -11 34 -11 28 1 -47 32 -110 45 -74
16 -150 17 -228 4z"/>
<path d="M1845 3340 c10 -11 20 -20 23 -20 3 0 -3 9 -13 20 -10 11 -20 20 -23
20 -3 0 3 -9 13 -20z"/>
<path d="M1939 3238 c17 -27 34 -48 37 -48 9 0 -30 61 -50 78 -11 9 -5 -4 13
-30z"/>
<path d="M1360 3173 c-53 -18 -126 -66 -140 -92 -8 -16 -7 -18 10 -14 11 3 25
11 31 19 6 8 16 14 22 14 5 0 25 11 43 25 18 14 46 25 63 25 16 0 33 5 36 10
4 7 12 7 25 0 10 -5 25 -7 33 -4 8 3 18 1 22 -5 3 -6 21 -11 40 -11 19 0 37
-4 40 -10 8 -13 25 -13 25 0 0 6 -24 22 -52 35 -62 29 -131 32 -198 8z"/>
<path d="M1360 3107 c-69 -33 -100 -71 -132 -162 -28 -78 -8 -145 71 -227 24
-26 30 -38 19 -38 -8 0 -37 25 -62 55 -38 43 -49 65 -56 108 -5 30 -7 63 -6
73 5 30 -15 66 -29 54 -27 -22 -27 -93 0 -210 5 -20 2 -18 -14 10 -11 19 -20
43 -21 53 0 9 -4 17 -9 17 -21 0 39 -157 64 -166 8 -4 15 -14 15 -23 0 -9 5
-22 12 -29 14 -14 68 -16 68 -2 0 6 -4 10 -8 10 -12 0 -72 55 -72 65 0 5 12
-3 28 -17 15 -14 45 -38 67 -53 35 -24 37 -27 13 -21 -16 3 -28 3 -28 -2 0
-10 51 -37 64 -33 5 1 25 -4 45 -12 41 -16 71 -15 121 4 34 12 34 13 10 19
-22 5 -19 8 25 24 93 35 173 128 200 233 19 72 12 125 -26 191 -30 52 -89 105
-89 80 0 -8 4 -18 8 -23 4 -6 18 -36 31 -67 23 -59 27 -93 18 -168 -3 -25 -6
-48 -6 -52 -2 -15 -98 -105 -120 -111 -19 -5 -13 5 28 44 28 28 51 59 51 69 0
10 5 22 11 26 8 4 10 30 7 74 -4 56 -11 76 -38 114 -36 49 -45 54 -54 31 -8
-23 -46 -19 -46 5 0 12 7 20 16 20 25 0 12 33 -16 41 -40 11 -133 8 -160 -4z
m117 -129 c7 -6 13 -14 13 -19 0 -15 -30 -10 -36 6 -4 10 -14 13 -30 9 -23 -6
-32 5 -17 20 9 9 53 -1 70 -16z m-102 -308 c8 -12 67 -13 120 0 40 9 40 9 17
-9 -24 -17 -69 -20 -130 -6 -34 7 -53 25 -28 25 8 0 18 -4 21 -10z m2 -86 c-3
-3 -12 -4 -19 -1 -8 3 -5 6 6 6 11 1 17 -2 13 -5z m96 -11 c-13 -2 -33 -2 -45
0 -13 2 -3 4 22 4 25 0 35 -2 23 -4z"/>
<path d="M1200 3039 c0 -5 5 -7 10 -4 6 3 10 8 10 11 0 2 -4 4 -10 4 -5 0 -10
-5 -10 -11z"/>
<path d="M2314 2915 c-4 -8 -17 -15 -31 -15 -13 0 -33 -5 -44 -10 -17 -10 -18
-13 -5 -25 17 -17 82 -20 91 -4 11 16 12 69 3 69 -5 0 -11 -7 -14 -15z"/>
<path d="M2221 2844 c0 -11 3 -14 6 -6 3 7 2 16 -1 19 -3 4 -6 -2 -5 -13z"/>
<path d="M2308 2812 c-10 -2 -18 -7 -18 -12 0 -5 -12 -10 -27 -12 -26 -3 -23
-5 27 -30 30 -15 56 -25 58 -23 2 2 6 21 9 44 6 42 3 44 -49 33z"/>
<path d="M1998 2665 c-9 -16 -19 -40 -22 -52 -7 -21 -4 -23 24 -23 42 0 67
-15 85 -50 34 -65 92 -75 120 -20 31 60 -15 102 -87 82 -44 -12 -85 8 -94 46
-3 15 -7 32 -8 37 -2 6 -10 -3 -18 -20z"/>
<path d="M2396 2558 c-8 -13 -17 -39 -21 -58 -8 -41 -49 -126 -73 -154 -9 -10
-41 -34 -69 -53 -55 -35 -64 -55 -43 -94 22 -39 106 -64 127 -36 5 6 15 31 21
54 15 49 41 62 77 39 14 -9 31 -29 40 -45 46 -90 157 -75 139 18 -8 37 -56 81
-89 81 -12 0 -33 8 -45 18 l-22 18 37 69 c26 49 34 76 30 94 -7 32 -49 71 -75
71 -11 0 -26 -10 -34 -22z"/>
<path d="M3250 2425 c-19 -19 -28 -35 -22 -35 16 0 62 45 62 60 0 15 -3 13
-40 -25z"/>
<path d="M1735 2381 c-6 -4 -31 -14 -57 -21 -27 -7 -48 -17 -48 -21 0 -5 4 -9
10 -9 17 0 120 41 125 51 8 11 -18 12 -30 0z"/>
<path d="M3372 2295 c-20 -19 -32 -35 -27 -35 6 0 27 16 48 35 21 19 33 35 27
35 -5 0 -27 -16 -48 -35z"/>
<path d="M3439 2191 c-13 -11 -21 -22 -17 -26 9 -9 26 2 38 26 13 24 8 24 -21
0z"/>
<path d="M3473 2178 c-41 -28 -54 -48 -33 -48 6 0 30 18 53 40 49 46 40 51
-20 8z"/>
<path d="M2666 2134 c-22 -21 -20 -67 4 -89 39 -36 110 -9 110 41 0 51 -79 84
-114 48z"/>
<path d="M3276 2107 c3 -10 9 -15 12 -12 3 3 0 11 -7 18 -10 9 -11 8 -5 -6z"/>
<path d="M3305 2039 c22 -23 46 -49 52 -57 7 -7 17 -10 23 -7 5 3 10 -1 10
-10 0 -11 5 -15 14 -12 8 3 17 3 20 -1 4 -3 14 -7 24 -8 9 -2 36 -8 60 -15 23
-6 46 -9 49 -5 13 13 -18 30 -59 33 -23 2 -44 7 -47 11 -3 4 -27 21 -52 37
-32 19 -45 34 -41 44 4 10 1 13 -11 8 -8 -3 -17 -2 -19 3 -2 5 -16 12 -33 16
l-30 7 40 -44z"/>
<path d="M2852 2018 c-29 -29 -7 -78 34 -78 20 0 54 32 54 52 0 30 -65 49 -88
26z"/>
<path d="M5072 4878 c6 -18 28 -21 28 -4 0 9 -7 16 -16 16 -9 0 -14 -5 -12
-12z"/>
<path d="M5105 4840 c-3 -5 -1 -10 4 -10 6 0 11 5 11 10 0 6 -2 10 -4 10 -3 0
-8 -4 -11 -10z"/>
<path d="M3660 4760 c0 -5 5 -10 10 -10 6 0 10 5 10 10 0 6 -4 10 -10 10 -5 0
-10 -4 -10 -10z"/>
<path d="M880 4730 c0 -5 12 -10 26 -10 14 0 23 4 19 10 -3 6 -15 10 -26 10
-10 0 -19 -4 -19 -10z"/>
<path d="M3540 4676 c0 -14 29 -31 38 -21 6 6 -18 35 -29 35 -5 0 -9 -6 -9
-14z"/>
<path d="M1075 4663 c13 -14 125 -24 125 -12 0 5 -8 9 -19 9 -10 0 -40 3 -67
6 -33 5 -46 3 -39 -3z"/>
<path d="M952 4575 c0 -16 2 -22 5 -12 2 9 2 23 0 30 -3 6 -5 -1 -5 -18z"/>
<path d="M945 4480 c3 -5 15 -10 26 -10 10 0 19 5 19 10 0 6 -12 10 -26 10
-14 0 -23 -4 -19 -10z"/>
<path d="M1040 4486 c0 -2 7 -6 15 -10 8 -3 15 -1 15 4 0 6 -7 10 -15 10 -8 0
-15 -2 -15 -4z"/>
<path d="M1148 4473 c7 -3 16 -2 19 1 4 3 -2 6 -13 5 -11 0 -14 -3 -6 -6z"/>
<path d="M0 4451 c0 -13 37 -24 51 -15 8 4 7 9 -2 15 -19 12 -49 11 -49 0z"/>
<path d="M2100 4355 c0 -8 -7 -15 -15 -15 -8 0 -15 -9 -15 -20 0 -11 -4 -20
-9 -20 -5 0 -11 -9 -14 -20 -7 -27 5 -25 37 6 16 17 26 38 26 55 0 16 -2 29
-5 29 -3 0 -5 -7 -5 -15z"/>
<path d="M20 4335 c0 -8 6 -15 14 -15 8 0 16 7 20 15 4 10 -1 15 -14 15 -11 0
-20 -7 -20 -15z"/>
<path d="M1245 4330 c3 -5 8 -10 11 -10 2 0 4 5 4 10 0 6 -5 10 -11 10 -5 0
-7 -4 -4 -10z"/>
<path d="M1030 4310 c-8 -5 -11 -12 -7 -16 4 -4 15 0 24 9 18 18 8 23 -17 7z"/>
<path d="M78 4293 c6 -2 18 -2 25 0 6 3 1 5 -13 5 -14 0 -19 -2 -12 -5z"/>
<path d="M130 4287 c0 -15 40 -26 62 -18 21 9 21 10 3 11 -11 0 -30 3 -42 6
-13 4 -23 4 -23 1z"/>
<path d="M1347 4249 c-9 -5 -22 -7 -29 -3 -8 5 -9 -4 -5 -31 4 -24 1 -48 -8
-66 -8 -15 -15 -30 -15 -32 0 -5 33 -16 73 -23 27 -5 28 -4 17 17 -24 44 -28
76 -14 104 23 44 17 55 -19 34z"/>
<path d="M1535 4190 c3 -5 8 -10 11 -10 2 0 4 5 4 10 0 6 -5 10 -11 10 -5 0
-7 -4 -4 -10z"/>
<path d="M1736 4164 c-18 -17 -21 -34 -7 -34 5 0 16 -3 25 -6 12 -5 16 0 16
19 0 33 -14 42 -34 21z"/>
<path d="M1166 4035 c-11 -8 -17 -18 -13 -21 10 -11 37 4 37 21 0 18 0 18 -24
0z"/>
<path d="M1233 4043 c-19 -3 -33 -10 -33 -18 0 -17 -28 -27 -53 -19 -12 4 -17
2 -13 -4 8 -14 65 -20 70 -8 2 6 10 3 18 -7 13 -17 15 -17 27 -3 8 9 20 16 28
16 7 0 23 9 35 20 l22 20 -21 0 c-12 0 -27 2 -35 3 -7 2 -28 2 -45 0z"/>
<path d="M1077 4014 c11 -16 23 -36 26 -44 3 -9 8 -3 12 18 4 17 12 32 17 32
5 0 6 5 3 10 -11 17 -25 11 -25 -12 0 -12 -3 -18 -7 -14 -5 4 -8 13 -8 19 0 7
-9 13 -19 15 -18 4 -18 3 1 -24z"/>
<path d="M2635 4010 c-3 -5 -1 -10 4 -10 6 0 11 5 11 10 0 6 -2 10 -4 10 -3 0
-8 -4 -11 -10z"/>
<path d="M1030 3962 c0 -5 -10 -14 -22 -20 -23 -10 -23 -11 5 -11 15 -1 27 1
27 3 0 2 3 11 6 20 3 9 1 16 -5 16 -6 0 -11 -4 -11 -8z"/>
</g>
</svg>
